{
    "asset" : {
        "generator" : "Khronos glTF Blender I/O v1.5.17",
        "version" : "2.0"
    },
    "scene" : 0,
    "scenes" : [
        {
            "name" : "Scene",
            "nodes" : [
                0,
                1,
                2,
                3
            ]
        }
    ],
    "nodes" : [
        {
            "name" : "Light",
            "rotation" : [
                0.16907575726509094,
                0.7558803558349609,
                -0.27217137813568115,
                0.570947527885437
            ],
            "translation" : [
                4.076245307922363,
                5.903861999511719,
                -1.0054539442062378
            ]
        },
        {
            "name" : "Camera",
            "rotation" : [
                0.483536034822464,
                0.33687159419059753,
                -0.20870360732078552,
                0.7804827094078064
            ],
            "translation" : [
                7.358891487121582,
                4.958309173583984,
                6.925790786743164
            ]
        },
        {
            "mesh" : 0,
            "name" : "Curve",
            "scale" : [
                2.6572048664093018,
                2.6572048664093018,
                2.6572048664093018
            ],
            "translation" : [
                -0.07846260815858841,
                0,
                0.07210014760494232
            ]
        },
        {
            "mesh" : 1,
            "name" : "Curve.001",
            "scale" : [
                2.6572048664093018,
                2.6572048664093018,
                2.6572048664093018
            ],
            "translation" : [
                -0.07846260815858841,
                0,
                0.07210014760494232
            ]
        }
    ],
    "materials" : [
        {
            "doubleSided" : true,
            "name" : "SVGMat",
            "pbrMetallicRoughness" : {
                "baseColorFactor" : [
                    0.800000011920929,
                    0.800000011920929,
                    0.800000011920929,
                    1
                ],
                "metallicFactor" : 0,
                "roughnessFactor" : 0.5
            }
        }
    ],
    "meshes" : [
        {
            "name" : "Curve",
            "primitives" : [
                {
                    "attributes" : {
                        "POSITION" : 0,
                        "NORMAL" : 1,
                        "TEXCOORD_0" : 2
                    },
                    "indices" : 3,
                    "material" : 0
                }
            ]
        },
        {
            "name" : "Curve.001",
            "primitives" : [
                {
                    "attributes" : {
                        "POSITION" : 4,
                        "NORMAL" : 5,
                        "TEXCOORD_0" : 6
                    },
                    "indices" : 7,
                    "material" : 0
                }
            ]
        }
    ],
    "accessors" : [
        {
            "bufferView" : 0,
            "componentType" : 5126,
            "count" : 724,
            "max" : [
                0.1328701227903366,
                0.004147791303694248,
                -0.005471229553222656
            ],
            "min" : [
                0.005644559860229492,
                0,
                -0.13266992568969727
            ],
            "type" : "VEC3"
        },
        {
            "bufferView" : 1,
            "componentType" : 5126,
            "count" : 724,
            "type" : "VEC3"
        },
        {
            "bufferView" : 2,
            "componentType" : 5126,
            "count" : 724,
            "type" : "VEC2"
        },
        {
            "bufferView" : 3,
            "componentType" : 5123,
            "count" : 1152,
            "type" : "SCALAR"
        },
        {
            "bufferView" : 4,
            "componentType" : 5126,
            "count" : 368,
            "max" : [
                0.09194423258304596,
                0.017371132969856262,
                -0.028885573148727417
            ],
            "min" : [
                0.04657326638698578,
                0,
                -0.10924430936574936
            ],
            "type" : "VEC3"
        },
        {
            "bufferView" : 5,
            "componentType" : 5126,
            "count" : 368,
            "type" : "VEC3"
        },
        {
            "bufferView" : 6,
            "componentType" : 5126,
            "count" : 368,
            "type" : "VEC2"
        },
        {
            "bufferView" : 7,
            "componentType" : 5123,
            "count" : 558,
            "type" : "SCALAR"
        }
    ],
    "bufferViews" : [
        {
            "buffer" : 0,
            "byteLength" : 8688,
            "byteOffset" : 0
        },
        {
            "buffer" : 0,
            "byteLength" : 8688,
            "byteOffset" : 8688
        },
        {
            "buffer" : 0,
            "byteLength" : 5792,
            "byteOffset" : 17376
        },
        {
            "buffer" : 0,
            "byteLength" : 2304,
            "byteOffset" : 23168
        },
        {
            "buffer" : 0,
            "byteLength" : 4416,
            "byteOffset" : 25472
        },
        {
            "buffer" : 0,
            "byteLength" : 4416,
            "byteOffset" : 29888
        },
        {
            "buffer" : 0,
            "byteLength" : 2944,
            "byteOffset" : 34304
        },
        {
            "buffer" : 0,
            "byteLength" : 1116,
            "byteOffset" : 37248
        }
    ],
    "buffers" : [
        {
            "byteLength" : 38364,
            "uri" : "data:application/octet-stream;base64,"
        }
    ]
}
